# File created by Blade
# Date/Time:  Wed Jan 21 17:16:23 2015
# Frame Rate: 120.000 fps
#------------------------------------------------------
:FULLY-SPECIFIED
:DEGREES
1597
root 21.140339 5.260362 -15.804647 -186.426418 -6.914583 -206.700626
Spine 15.574454 6.362445 -38.538329
Head -14.011737 -15.207829 16.427659
LeftShoulder 9.740864 -31.436848 -1.707959
LeftArm 6.890763 67.614790 -66.697877
LeftForeArm 25.377969 -0.000000 36.320738
LeftHand 4.071703 -0.000000 15.427327
LeftHandThumb1 -26.253704 0.000000 33.147579
RightShoulder 1.421981 -2.387121 9.106744
RightArm 53.656405 -42.158142 42.057262
RightForeArm -45.253151 -0.000000 36.758099
RightHand -0.733528 -0.000000 -13.103712
RightHandThumb1 -24.326973 -0.000000 -32.862282
LeftUpLeg -11.841961 26.074124 36.207326
LeftLeg 149.632701 -0.000000 -0.000000
LeftFoot 47.757315 2.781275 19.809067
LeftToeBase 20.953386 -0.000000 -0.000000
RightUpLeg -106.299879 -8.204093 58.290296
RightLeg 126.067208 -0.000000 -0.000000
RightFoot 29.224619 -19.291457 6.877524
RightToeBase 34.141032 -0.000000 -0.000000
1598
root 21.143539 5.259070 -15.805237 -186.382649 -6.885739 -206.687223
Spine 15.516427 6.339283 -38.522204
Head -13.874263 -15.101881 16.436248
LeftShoulder 9.703662 -31.468414 -1.723266
LeftArm 6.883179 67.678833 -66.682362
LeftForeArm 25.372438 0.000000 36.330165
LeftHand 4.095087 0.000000 15.353591
LeftHandThumb1 -26.253704 0.000000 33.147579
RightShoulder 1.406644 -2.360564 9.140047
RightArm 53.621559 -42.193029 42.045310
RightForeArm -45.262578 0.000000 36.795575
RightHand -0.740840 -0.000000 -13.072133
RightHandThumb1 -24.326973 -0.000000 -32.862282
LeftUpLeg -11.859735 26.102432 36.229519
LeftLeg 149.631991 -0.000000 -0.000000
LeftFoot 47.747515 2.738177 19.812611
LeftToeBase 21.307070 -0.000000 -0.000000
RightUpLeg -106.271138 -8.121127 58.457268
RightLeg 126.014796 -0.000000 -0.000000
RightFoot 29.068354 -19.748795 6.734827
RightToeBase 34.252002 -0.000000 -0.000000
1599
root 21.147045 5.257750 -15.806417 -186.339966 -6.843595 -206.686224
Spine 15.442597 6.313908 -38.533371
Head -13.718603 -15.031904 16.485389
LeftShoulder 9.651424 -31.472782 -1.711537
LeftArm 6.886161 67.720677 -66.665433
LeftForeArm 25.325167 -0.000000 36.341430
LeftHand 4.074399 -0.000000 15.326023
LeftHandThumb1 -26.253704 0.000000 33.147579
RightShoulder 1.402797 -2.349430 9.173519
RightArm 53.590617 -42.209454 42.047999
RightForeArm -45.323557 -0.000000 36.836968
RightHand -0.737012 -0.000000 -12.970576
RightHandThumb1 -24.326973 -0.000000 -32.862282
LeftUpLeg -11.859210 26.155465 36.247235
LeftLeg 149.609674 -0.000000 -0.000000
LeftFoot 47.815052 2.776110 19.807188
LeftToeBase 21.334319 -0.000000 -0.000000
RightUpLeg -106.234293 -8.050444 58.511813
RightLeg 125.977033 -0.000000 -0.000000
RightFoot 28.984049 -19.951691 6.701565
RightToeBase 34.255207 -0.000000 -0.000000
1600
root 21.148116 5.256768 -15.809860 -186.293147 -6.808924 -206.699897
Spine 15.368827 6.257238 -38.571142
Head -13.561976 -14.835937 16.483909
LeftShoulder 9.566154 -31.503070 -1.673777
LeftArm 6.779199 67.764306 -66.763411
LeftForeArm 25.358078 -0.000000 36.358214
LeftHand 3.797162 -0.000000 15.571361
LeftHandThumb1 -26.253704 0.000000 33.147579
RightShoulder 1.407512 -2.338386 9.210394
RightArm 53.553515 -42.244681 42.080532
RightForeArm -45.312648 -0.000000 36.862632
RightHand -0.734920 -0.000000 -12.969215
RightHandThumb1 -24.326973 -0.000000 -32.862282
LeftUpLeg -11.857775 26.197873 36.242784
LeftLeg 149.597210 -0.000000 -0.000000
LeftFoot 47.806221 2.789035 19.812754
LeftToeBase 21.253830 -0.000000 -0.000000
RightUpLeg -106.242495 -8.031628 58.363162
RightLeg 125.995996 -0.000000 -0.000000
RightFoot 29.113610 -19.612656 6.814244
RightToeBase 34.187176 -0.000000 -0.000000
1601
root 21.151433 5.254545 -15.814446 -186.244541 -6.783157 -206.695778
Spine 15.286860 6.181563 -38.586890
Head -13.383317 -14.705316 16.471812
LeftShoulder 9.470551 -31.486439 -1.635983
LeftArm 6.745013 67.770991 -66.778804
LeftForeArm 25.321000 -0.000000 36.373900
LeftHand 4.030791 0.000000 15.393498
LeftHandThumb1 -26.253704 0.000000 33.147579
RightShoulder 1.416875 -2.330725 9.233853
RightArm 53.518503 -42.277568 42.134622
RightForeArm -45.355778 -0.000000 36.867329
RightHand -0.697824 -0.000000 -12.928827
RightHandThumb1 -24.326973 -0.000000 -32.862282
LeftUpLeg -11.861927 26.236819 36.270715
LeftLeg 149.589036 -0.000000 -0.000000
LeftFoot 47.775466 2.813296 19.817572
LeftToeBase 21.296440 -0.000000 -0.000000
RightUpLeg -106.229124 -7.974833 58.349040
RightLeg 125.982819 -0.000000 -0.000000
RightFoot 29.128647 -19.588187 6.820880
RightToeBase 34.138338 -0.000000 -0.000000
